<svg xmlns="http://www.w3.org/2000/svg" xmlns:xlink="http://www.w3.org/1999/xlink" width="500" zoomAndPan="magnify" viewBox="0 0 375 374.999991" height="500" preserveAspectRatio="xMidYMid meet" version="1.0"><defs><filter x="0%" y="0%" width="100%" height="100%" id="f473988c7b"><feColorMatrix values="0 0 0 0 1 0 0 0 0 1 0 0 0 0 1 0 0 0 1 0" color-interpolation-filters="sRGB"/></filter><g/><clipPath id="78d802e699"><path d="M 128.652344 94.253906 L 253.644531 94.253906 L 253.644531 204 L 128.652344 204 Z M 128.652344 94.253906 " clip-rule="nonzero"/></clipPath><mask id="50c769df9f"><g filter="url(#f473988c7b)"><rect x="-37.5" width="450" fill="#000000" y="-37.499999" height="449.999989" fill-opacity="0.8196"/></g></mask><clipPath id="bd6c650ca0"><path d="M 0.410156 0.640625 L 99.886719 0.640625 L 99.886719 87.980469 L 0.410156 87.980469 Z M 0.410156 0.640625 " clip-rule="nonzero"/></clipPath><clipPath id="4e11a44a4d"><rect x="0" width="100" y="0" height="89"/></clipPath><clipPath id="b0c2753cd5"><path d="M 118.386719 140 L 203.886719 140 L 203.886719 204.242188 L 118.386719 204.242188 Z M 118.386719 140 " clip-rule="nonzero"/></clipPath></defs><g clip-path="url(#78d802e699)"><path fill="#ff1616" d="M 128.652344 126.632812 C 128.652344 161.488281 191.148438 204 191.148438 204 C 191.148438 204 253.371094 161.1875 253.644531 126.632812 C 253.644531 108.792969 239.121094 94.253906 221.296875 94.253906 C 207.597656 94.253906 195.800781 103.039062 191.148438 115.097656 C 186.5 103.039062 174.699219 94.253906 161 94.253906 C 143.175781 94.253906 128.652344 108.792969 128.652344 126.632812 " fill-opacity="1" fill-rule="nonzero"/></g><g mask="url(#50c769df9f)"><g transform="matrix(1, 0, 0, 1, 141, 116)"><g clip-path="url(#4e11a44a4d)"><g clip-path="url(#bd6c650ca0)"><path fill="#000000" d="M 0.414062 26.40625 C 0.414062 54.144531 50.148438 87.980469 50.148438 87.980469 C 50.148438 87.980469 99.667969 53.90625 99.886719 26.40625 C 99.886719 12.207031 88.328125 0.640625 74.140625 0.640625 C 63.238281 0.640625 53.851562 7.628906 50.148438 17.226562 C 46.449219 7.628906 37.058594 0.640625 26.15625 0.640625 C 11.972656 0.640625 0.414062 12.207031 0.414062 26.40625 " fill-opacity="1" fill-rule="nonzero"/></g></g></g></g><g clip-path="url(#b0c2753cd5)"><path fill="#ffb6c1" d="M 201.839844 165.03125 C 201.828125 164.851562 201.785156 164.675781 201.71875 164.507812 C 200.347656 157.203125 194.089844 152.679688 186.035156 152.679688 C 183.152344 152.679688 179.039062 151.785156 175.828125 157.496094 L 161.207031 157.496094 C 161.421875 154.644531 162.152344 153.324219 162.980469 152.140625 C 164.199219 150.398438 165.582031 148.25 165.582031 142.46875 C 165.582031 141.480469 164.789062 140.597656 163.804688 140.597656 C 162.816406 140.597656 162.023438 141.351562 162.023438 142.335938 C 162.023438 146.988281 161.121094 148.613281 160.066406 150.117188 C 159.042969 151.578125 157.898438 151.789062 157.636719 157.496094 L 146.4375 157.496094 C 143.226562 151.789062 139.117188 152.679688 136.234375 152.679688 C 128.214844 152.679688 121.734375 157.851562 120.460938 165.664062 C 119.855469 173.578125 118.449219 191.960938 118.449219 192.554688 C 118.449219 198.800781 123.433594 204.234375 129.117188 204.234375 C 134.203125 204.234375 137.515625 202.335938 138.960938 198.644531 C 138.980469 198.609375 139 198.5625 139.015625 198.527344 L 142.6875 189.90625 C 144.179688 191.042969 146.214844 192.4375 148.683594 192.4375 C 153.070312 192.4375 157.140625 188.894531 158.703125 186.039062 L 163.582031 186.039062 C 165.113281 188.894531 169.097656 191.929688 173.59375 191.929688 C 175.992188 191.929688 177.960938 191.289062 179.550781 190.347656 L 183.277344 198.628906 C 183.289062 198.660156 183.308594 198.636719 183.320312 198.675781 C 184.765625 202.359375 188.078125 204.207031 193.160156 204.207031 C 198.9375 204.207031 203.832031 199.058594 203.832031 192.980469 C 203.820312 192.390625 202.4375 173.234375 201.839844 165.03125 Z M 139.789062 174.617188 L 135.523438 174.617188 L 135.523438 178.1875 C 135.523438 179.175781 135.082031 179.972656 134.097656 179.972656 C 133.113281 179.972656 132.675781 179.175781 132.675781 178.1875 L 132.675781 174.617188 L 129.117188 174.617188 C 128.132812 174.617188 127.339844 174.183594 127.339844 173.191406 C 127.339844 172.203125 128.132812 171.765625 129.117188 171.765625 L 132.675781 171.765625 L 132.675781 167.484375 C 132.675781 166.496094 133.113281 165.699219 134.097656 165.699219 C 135.082031 165.699219 135.523438 166.496094 135.523438 167.484375 L 135.523438 171.765625 L 139.789062 171.765625 C 140.773438 171.765625 141.570312 172.203125 141.570312 173.191406 C 141.570312 174.183594 140.773438 174.617188 139.789062 174.617188 Z M 157.578125 174.617188 L 154.019531 174.617188 C 153.035156 174.617188 152.242188 174.183594 152.242188 173.191406 C 152.242188 172.203125 153.035156 171.765625 154.019531 171.765625 L 157.578125 171.765625 C 158.5625 171.765625 159.355469 172.203125 159.355469 173.191406 C 159.355469 174.183594 158.5625 174.617188 157.578125 174.617188 Z M 168.246094 174.617188 L 164.691406 174.617188 C 163.707031 174.617188 162.910156 174.183594 162.910156 173.191406 C 162.910156 172.203125 163.707031 171.765625 164.691406 171.765625 L 168.246094 171.765625 C 169.234375 171.765625 170.027344 172.203125 170.027344 173.191406 C 170.027344 174.183594 169.234375 174.617188 168.246094 174.617188 Z M 178.917969 181.753906 C 176.957031 181.753906 175.363281 180.15625 175.363281 178.1875 C 175.363281 176.222656 176.957031 174.617188 178.917969 174.617188 C 180.882812 174.617188 182.476562 176.222656 182.476562 178.1875 C 182.476562 180.160156 180.882812 181.753906 178.917969 181.753906 Z M 178.917969 171.050781 C 176.957031 171.050781 175.363281 169.453125 175.363281 167.484375 C 175.363281 165.515625 176.957031 163.914062 178.917969 163.914062 C 180.882812 163.914062 182.476562 165.515625 182.476562 167.484375 C 182.476562 169.453125 180.882812 171.050781 178.917969 171.050781 Z M 189.589844 181.753906 C 187.628906 181.753906 186.035156 180.15625 186.035156 178.1875 C 186.035156 176.222656 187.628906 174.617188 189.589844 174.617188 C 191.554688 174.617188 193.148438 176.222656 193.148438 178.1875 C 193.148438 180.160156 191.554688 181.753906 189.589844 181.753906 Z M 189.589844 171.050781 C 187.628906 171.050781 186.035156 169.453125 186.035156 167.484375 C 186.035156 165.515625 187.628906 163.914062 189.589844 163.914062 C 191.554688 163.914062 193.148438 165.515625 193.148438 167.484375 C 193.148438 169.453125 191.554688 171.050781 189.589844 171.050781 Z M 189.589844 171.050781 " fill-opacity="1" fill-rule="nonzero"/></g><g fill="#000000" fill-opacity="1"><g transform="translate(121.322268, 232.034121)"><g><path d="M 0.71875 -25.453125 L 6.75 -25.453125 L 12.546875 -14.5 L 12.796875 -14.5 L 18.609375 -25.453125 L 24.640625 -25.453125 L 15.34375 -9 L 15.34375 0 L 10 0 L 10 -9 Z M 0.71875 -25.453125 "/></g></g></g><g fill="#000000" fill-opacity="1"><g transform="translate(146.671594, 232.034121)"><g><path d="M 10.734375 0.375 C 8.804688 0.375 7.140625 -0.0351562 5.734375 -0.859375 C 4.328125 -1.679688 3.242188 -2.832031 2.484375 -4.3125 C 1.722656 -5.789062 1.34375 -7.507812 1.34375 -9.46875 C 1.34375 -11.4375 1.722656 -13.160156 2.484375 -14.640625 C 3.242188 -16.117188 4.328125 -17.269531 5.734375 -18.09375 C 7.140625 -18.925781 8.804688 -19.34375 10.734375 -19.34375 C 12.671875 -19.34375 14.335938 -18.925781 15.734375 -18.09375 C 17.140625 -17.269531 18.222656 -16.117188 18.984375 -14.640625 C 19.753906 -13.160156 20.140625 -11.4375 20.140625 -9.46875 C 20.140625 -7.507812 19.753906 -5.789062 18.984375 -4.3125 C 18.222656 -2.832031 17.140625 -1.679688 15.734375 -0.859375 C 14.335938 -0.0351562 12.671875 0.375 10.734375 0.375 Z M 10.765625 -3.734375 C 12.078125 -3.734375 13.066406 -4.28125 13.734375 -5.375 C 14.410156 -6.46875 14.75 -7.847656 14.75 -9.515625 C 14.75 -11.171875 14.410156 -12.546875 13.734375 -13.640625 C 13.066406 -14.742188 12.078125 -15.296875 10.765625 -15.296875 C 9.429688 -15.296875 8.421875 -14.742188 7.734375 -13.640625 C 7.054688 -12.546875 6.71875 -11.171875 6.71875 -9.515625 C 6.71875 -7.847656 7.054688 -6.46875 7.734375 -5.375 C 8.421875 -4.28125 9.429688 -3.734375 10.765625 -3.734375 Z M 10.765625 -3.734375 "/></g></g></g><g fill="#000000" fill-opacity="1"><g transform="translate(168.143959, 232.034121)"><g><path d="M 14.359375 -8.125 L 14.359375 -19.09375 L 19.65625 -19.09375 L 19.65625 0 L 14.5625 0 L 14.5625 -3.46875 L 14.375 -3.46875 C 13.9375 -2.351562 13.21875 -1.453125 12.21875 -0.765625 C 11.21875 -0.0859375 10.003906 0.25 8.578125 0.25 C 6.648438 0.25 5.09375 -0.390625 3.90625 -1.671875 C 2.71875 -2.953125 2.117188 -4.707031 2.109375 -6.9375 L 2.109375 -19.09375 L 7.40625 -19.09375 L 7.40625 -7.875 C 7.414062 -6.75 7.71875 -5.859375 8.3125 -5.203125 C 8.90625 -4.546875 9.707031 -4.21875 10.71875 -4.21875 C 11.664062 -4.21875 12.507812 -4.550781 13.25 -5.21875 C 14 -5.882812 14.367188 -6.851562 14.359375 -8.125 Z M 14.359375 -8.125 "/></g></g></g><g fill="#000000" fill-opacity="1"><g transform="translate(189.902129, 232.034121)"><g><path d="M 2.109375 0 L 2.109375 -19.09375 L 7.25 -19.09375 L 7.25 -15.765625 L 7.4375 -15.765625 C 7.789062 -16.941406 8.375 -17.832031 9.1875 -18.4375 C 10.007812 -19.050781 10.957031 -19.359375 12.03125 -19.359375 C 12.539062 -19.359375 13.015625 -19.296875 13.453125 -19.171875 C 13.898438 -19.046875 14.296875 -18.878906 14.640625 -18.671875 L 13.046875 -14.296875 C 12.796875 -14.421875 12.523438 -14.523438 12.234375 -14.609375 C 11.941406 -14.691406 11.613281 -14.734375 11.25 -14.734375 C 10.175781 -14.734375 9.269531 -14.367188 8.53125 -13.640625 C 7.789062 -12.910156 7.414062 -11.960938 7.40625 -10.796875 L 7.40625 0 Z M 2.109375 0 "/></g></g></g><g fill="#000000" fill-opacity="1"><g transform="translate(204.90048, 232.034121)"><g><path d="M 2.21875 0 L 2.21875 -25.453125 L 7.59375 -25.453125 L 7.59375 -14.953125 L 18.515625 -14.953125 L 18.515625 -25.453125 L 23.890625 -25.453125 L 23.890625 0 L 18.515625 0 L 18.515625 -10.515625 L 7.59375 -10.515625 L 7.59375 0 Z M 2.21875 0 "/></g></g></g><g fill="#000000" fill-opacity="1"><g transform="translate(231.007793, 232.034121)"><g><path d="M 2.21875 0 L 2.21875 -25.453125 L 12.25 -25.453125 C 14.1875 -25.453125 15.832031 -25.082031 17.1875 -24.34375 C 18.550781 -23.613281 19.585938 -22.597656 20.296875 -21.296875 C 21.015625 -20.003906 21.375 -18.515625 21.375 -16.828125 C 21.375 -15.140625 21.007812 -13.648438 20.28125 -12.359375 C 19.550781 -11.066406 18.492188 -10.054688 17.109375 -9.328125 C 15.734375 -8.609375 14.070312 -8.25 12.125 -8.25 L 7.59375 -8.25 L 7.59375 0 Z M 7.59375 -12.5625 L 11.25 -12.5625 C 12.789062 -12.5625 13.9375 -12.957031 14.6875 -13.75 C 15.445312 -14.539062 15.828125 -15.566406 15.828125 -16.828125 C 15.828125 -18.097656 15.445312 -19.117188 14.6875 -19.890625 C 13.9375 -20.671875 12.78125 -21.0625 11.21875 -21.0625 L 7.59375 -21.0625 Z M 7.59375 -12.5625 "/></g></g></g><g fill="#000000" fill-opacity="1"><g transform="translate(139.441402, 248.634022)"><g><path d="M 4.90625 -4.421875 C 4.820312 -4.734375 4.660156 -4.972656 4.421875 -5.140625 C 4.191406 -5.316406 3.894531 -5.40625 3.53125 -5.40625 C 3.03125 -5.40625 2.625 -5.21875 2.3125 -4.84375 C 2.007812 -4.476562 1.859375 -3.957031 1.859375 -3.28125 C 1.859375 -2.59375 2.007812 -2.0625 2.3125 -1.6875 C 2.613281 -1.320312 3.023438 -1.140625 3.546875 -1.140625 C 4.003906 -1.140625 4.363281 -1.257812 4.625 -1.5 C 4.894531 -1.738281 5.035156 -2.054688 5.046875 -2.453125 L 3.640625 -2.453125 L 3.640625 -3.5 L 6.375 -3.5 L 6.375 -2.671875 C 6.375 -2.097656 6.25 -1.601562 6 -1.1875 C 5.757812 -0.78125 5.425781 -0.460938 5 -0.234375 C 4.582031 -0.015625 4.097656 0.09375 3.546875 0.09375 C 2.929688 0.09375 2.390625 -0.0390625 1.921875 -0.3125 C 1.460938 -0.582031 1.101562 -0.96875 0.84375 -1.46875 C 0.582031 -1.976562 0.453125 -2.578125 0.453125 -3.265625 C 0.453125 -3.972656 0.585938 -4.578125 0.859375 -5.078125 C 1.128906 -5.578125 1.492188 -5.960938 1.953125 -6.234375 C 2.421875 -6.503906 2.941406 -6.640625 3.515625 -6.640625 C 4.003906 -6.640625 4.445312 -6.546875 4.84375 -6.359375 C 5.25 -6.171875 5.578125 -5.910156 5.828125 -5.578125 C 6.085938 -5.242188 6.25 -4.859375 6.3125 -4.421875 Z M 4.90625 -4.421875 "/></g></g></g><g fill="#000000" fill-opacity="1"><g transform="translate(146.287108, 248.634022)"><g><path d="M 1.703125 0 L 0.21875 0 L 2.46875 -6.546875 L 4.25 -6.546875 L 6.515625 0 L 5.03125 0 L 4.546875 -1.5 L 2.1875 -1.5 Z M 2.53125 -2.578125 L 4.203125 -2.578125 L 3.390625 -5.046875 L 3.34375 -5.046875 Z M 2.53125 -2.578125 "/></g></g></g><g fill="#000000" fill-opacity="1"><g transform="translate(153.017756, 248.634022)"><g><path d="M 0.5625 -6.546875 L 2.28125 -6.546875 L 4.078125 -2.140625 L 4.15625 -2.140625 L 5.953125 -6.546875 L 7.65625 -6.546875 L 7.65625 0 L 6.328125 0 L 6.328125 -4.265625 L 6.265625 -4.265625 L 4.578125 -0.03125 L 3.65625 -0.03125 L 1.96875 -4.28125 L 1.90625 -4.28125 L 1.90625 0 L 0.5625 0 Z M 0.5625 -6.546875 "/></g></g></g><g fill="#000000" fill-opacity="1"><g transform="translate(161.333593, 248.634022)"><g><path d="M 1.953125 -6.546875 L 1.953125 0 L 0.5625 0 L 0.5625 -6.546875 Z M 1.953125 -6.546875 "/></g></g></g><g fill="#000000" fill-opacity="1"><g transform="translate(163.858388, 248.634022)"><g><path d="M 6.046875 -6.546875 L 6.046875 0 L 4.84375 0 L 2 -4.125 L 1.953125 -4.125 L 1.953125 0 L 0.5625 0 L 0.5625 -6.546875 L 1.78125 -6.546875 L 4.609375 -2.421875 L 4.671875 -2.421875 L 4.671875 -6.546875 Z M 6.046875 -6.546875 "/></g></g></g><g fill="#000000" fill-opacity="1"><g transform="translate(170.473989, 248.634022)"><g><path d="M 4.90625 -4.421875 C 4.820312 -4.734375 4.660156 -4.972656 4.421875 -5.140625 C 4.191406 -5.316406 3.894531 -5.40625 3.53125 -5.40625 C 3.03125 -5.40625 2.625 -5.21875 2.3125 -4.84375 C 2.007812 -4.476562 1.859375 -3.957031 1.859375 -3.28125 C 1.859375 -2.59375 2.007812 -2.0625 2.3125 -1.6875 C 2.613281 -1.320312 3.023438 -1.140625 3.546875 -1.140625 C 4.003906 -1.140625 4.363281 -1.257812 4.625 -1.5 C 4.894531 -1.738281 5.035156 -2.054688 5.046875 -2.453125 L 3.640625 -2.453125 L 3.640625 -3.5 L 6.375 -3.5 L 6.375 -2.671875 C 6.375 -2.097656 6.25 -1.601562 6 -1.1875 C 5.757812 -0.78125 5.425781 -0.460938 5 -0.234375 C 4.582031 -0.015625 4.097656 0.09375 3.546875 0.09375 C 2.929688 0.09375 2.390625 -0.0390625 1.921875 -0.3125 C 1.460938 -0.582031 1.101562 -0.96875 0.84375 -1.46875 C 0.582031 -1.976562 0.453125 -2.578125 0.453125 -3.265625 C 0.453125 -3.972656 0.585938 -4.578125 0.859375 -5.078125 C 1.128906 -5.578125 1.492188 -5.960938 1.953125 -6.234375 C 2.421875 -6.503906 2.941406 -6.640625 3.515625 -6.640625 C 4.003906 -6.640625 4.445312 -6.546875 4.84375 -6.359375 C 5.25 -6.171875 5.578125 -5.910156 5.828125 -5.578125 C 6.085938 -5.242188 6.25 -4.859375 6.3125 -4.421875 Z M 4.90625 -4.421875 "/></g></g></g><g fill="#000000" fill-opacity="1"><g transform="translate(177.319695, 248.634022)"><g><path d="M 2.015625 -0.890625 L 1.984375 -0.546875 C 1.960938 -0.265625 1.910156 0.015625 1.828125 0.296875 C 1.753906 0.578125 1.671875 0.832031 1.578125 1.0625 C 1.492188 1.289062 1.429688 1.46875 1.390625 1.59375 L 0.5 1.59375 C 0.53125 1.46875 0.570312 1.289062 0.625 1.0625 C 0.6875 0.84375 0.738281 0.59375 0.78125 0.3125 C 0.832031 0.03125 0.863281 -0.25 0.875 -0.53125 L 0.890625 -0.890625 Z M 2.015625 -0.890625 "/></g></g></g><g fill="#000000" fill-opacity="1"><g transform="translate(180.045838, 248.634022)"><g/></g></g><g fill="#000000" fill-opacity="1"><g transform="translate(182.132782, 248.634022)"><g><path d="M 0.5625 0 L 0.5625 -6.546875 L 1.953125 -6.546875 L 1.953125 -3.84375 L 4.765625 -3.84375 L 4.765625 -6.546875 L 6.140625 -6.546875 L 6.140625 0 L 4.765625 0 L 4.765625 -2.703125 L 1.953125 -2.703125 L 1.953125 0 Z M 0.5625 0 "/></g></g></g><g fill="#000000" fill-opacity="1"><g transform="translate(188.847454, 248.634022)"><g><path d="M 0.5625 0 L 0.5625 -6.546875 L 4.984375 -6.546875 L 4.984375 -5.40625 L 1.953125 -5.40625 L 1.953125 -3.84375 L 4.75 -3.84375 L 4.75 -2.703125 L 1.953125 -2.703125 L 1.953125 -1.140625 L 4.984375 -1.140625 L 4.984375 0 Z M 0.5625 0 "/></g></g></g><g fill="#000000" fill-opacity="1"><g transform="translate(194.36045, 248.634022)"><g><path d="M 1.703125 0 L 0.21875 0 L 2.46875 -6.546875 L 4.25 -6.546875 L 6.515625 0 L 5.03125 0 L 4.546875 -1.5 L 2.1875 -1.5 Z M 2.53125 -2.578125 L 4.203125 -2.578125 L 3.390625 -5.046875 L 3.34375 -5.046875 Z M 2.53125 -2.578125 "/></g></g></g><g fill="#000000" fill-opacity="1"><g transform="translate(201.091098, 248.634022)"><g><path d="M 0.5625 0 L 0.5625 -6.546875 L 1.953125 -6.546875 L 1.953125 -1.140625 L 4.765625 -1.140625 L 4.765625 0 Z M 0.5625 0 "/></g></g></g><g fill="#000000" fill-opacity="1"><g transform="translate(206.198207, 248.634022)"><g><path d="M 0.3125 -5.40625 L 0.3125 -6.546875 L 5.6875 -6.546875 L 5.6875 -5.40625 L 3.6875 -5.40625 L 3.6875 0 L 2.328125 0 L 2.328125 -5.40625 Z M 0.3125 -5.40625 "/></g></g></g><g fill="#000000" fill-opacity="1"><g transform="translate(212.212969, 248.634022)"><g><path d="M 0.5625 0 L 0.5625 -6.546875 L 1.953125 -6.546875 L 1.953125 -3.84375 L 4.765625 -3.84375 L 4.765625 -6.546875 L 6.140625 -6.546875 L 6.140625 0 L 4.765625 0 L 4.765625 -2.703125 L 1.953125 -2.703125 L 1.953125 0 Z M 0.5625 0 "/></g></g></g><g fill="#000000" fill-opacity="1"><g transform="translate(218.927641, 248.634022)"><g><path d="M 1.953125 -6.546875 L 1.953125 0 L 0.5625 0 L 0.5625 -6.546875 Z M 1.953125 -6.546875 "/></g></g></g><g fill="#000000" fill-opacity="1"><g transform="translate(221.452436, 248.634022)"><g><path d="M 0.5625 0 L 0.5625 -6.546875 L 4.984375 -6.546875 L 4.984375 -5.40625 L 1.953125 -5.40625 L 1.953125 -3.84375 L 4.75 -3.84375 L 4.75 -2.703125 L 1.953125 -2.703125 L 1.953125 -1.140625 L 4.984375 -1.140625 L 4.984375 0 Z M 0.5625 0 "/></g></g></g><g fill="#000000" fill-opacity="1"><g transform="translate(226.965432, 248.634022)"><g><path d="M 0.5625 0 L 0.5625 -6.546875 L 3.15625 -6.546875 C 3.894531 -6.546875 4.46875 -6.347656 4.875 -5.953125 C 5.289062 -5.566406 5.5 -5.050781 5.5 -4.40625 C 5.5 -3.957031 5.398438 -3.570312 5.203125 -3.25 C 5.003906 -2.9375 4.71875 -2.703125 4.34375 -2.546875 L 5.734375 0 L 4.203125 0 L 2.96875 -2.3125 L 1.953125 -2.3125 L 1.953125 0 Z M 1.953125 -3.4375 L 2.890625 -3.4375 C 3.679688 -3.4375 4.078125 -3.757812 4.078125 -4.40625 C 4.078125 -5.070312 3.679688 -5.40625 2.890625 -5.40625 L 1.953125 -5.40625 Z M 1.953125 -3.4375 "/></g></g></g><g fill="#000000" fill-opacity="1"><g transform="translate(232.871533, 248.634022)"><g><path d="M 1.34375 0.078125 C 1.125 0.078125 0.9375 0.00390625 0.78125 -0.140625 C 0.632812 -0.285156 0.566406 -0.46875 0.578125 -0.6875 C 0.566406 -0.894531 0.632812 -1.070312 0.78125 -1.21875 C 0.9375 -1.363281 1.125 -1.4375 1.34375 -1.4375 C 1.539062 -1.4375 1.71875 -1.363281 1.875 -1.21875 C 2.03125 -1.070312 2.109375 -0.894531 2.109375 -0.6875 C 2.109375 -0.46875 2.03125 -0.285156 1.875 -0.140625 C 1.71875 0.00390625 1.539062 0.078125 1.34375 0.078125 Z M 1.34375 0.078125 "/></g></g></g></svg>